<svg width="157" height="19" viewBox="0 0 157 19" fill="none" xmlns="http://www.w3.org/2000/svg">
    <path d="M7.47463 18.168C6.24263 18.168 5.13863 17.968 4.16263 17.568C3.18663 17.168 2.40263 16.576 1.81063 15.792C1.23463 15.008 0.930625 14.064 0.898625 12.96H5.26663C5.33063 13.584 5.54663 14.064 5.91463 14.4C6.28263 14.72 6.76263 14.88 7.35463 14.88C7.96263 14.88 8.44263 14.744 8.79463 14.472C9.14663 14.184 9.32263 13.792 9.32263 13.296C9.32263 12.88 9.17863 12.536 8.89063 12.264C8.61863 11.992 8.27463 11.768 7.85863 11.592C7.45863 11.416 6.88263 11.216 6.13063 10.992C5.04263 10.656 4.15463 10.32 3.46663 9.984C2.77863 9.648 2.18663 9.152 1.69063 8.496C1.19463 7.84 0.946625 6.984 0.946625 5.928C0.946625 4.36 1.51463 3.136 2.65063 2.256C3.78663 1.36 5.26663 0.912 7.09063 0.912C8.94663 0.912 10.4426 1.36 11.5786 2.256C12.7146 3.136 13.3226 4.368 13.4026 5.952H8.96263C8.93063 5.408 8.73063 4.984 8.36263 4.68C7.99463 4.36 7.52263 4.2 6.94662 4.2C6.45063 4.2 6.05063 4.336 5.74663 4.608C5.44263 4.864 5.29063 5.24 5.29063 5.736C5.29063 6.28 5.54663 6.704 6.05862 7.008C6.57063 7.312 7.37063 7.64 8.45863 7.992C9.54663 8.36 10.4266 8.712 11.0986 9.048C11.7866 9.384 12.3786 9.872 12.8746 10.512C13.3706 11.152 13.6186 11.976 13.6186 12.984C13.6186 13.944 13.3706 14.816 12.8746 15.6C12.3946 16.384 11.6906 17.008 10.7626 17.472C9.83463 17.936 8.73863 18.168 7.47463 18.168ZM20.2483 1.152V18H16.1443V1.152H20.2483ZM38.2944 18H34.1904L27.3264 7.608V18H23.2224V1.152H27.3264L34.1904 11.592V1.152H38.2944V18ZM45.3733 1.152V18H41.2693V1.152H45.3733ZM68.5053 18H64.4013L57.5373 7.608V18H53.4333V1.152H57.5373L64.4013 11.592V1.152H68.5053V18ZM79.4482 18.168C77.8642 18.168 76.4082 17.8 75.0802 17.064C73.7682 16.328 72.7202 15.304 71.9362 13.992C71.1682 12.664 70.7842 11.176 70.7842 9.528C70.7842 7.88 71.1682 6.4 71.9362 5.088C72.7202 3.776 73.7682 2.752 75.0802 2.016C76.4082 1.28 77.8642 0.912 79.4482 0.912C81.0322 0.912 82.4802 1.28 83.7922 2.016C85.1202 2.752 86.1602 3.776 86.9122 5.088C87.6802 6.4 88.0642 7.88 88.0642 9.528C88.0642 11.176 87.6802 12.664 86.9122 13.992C86.1442 15.304 85.1042 16.328 83.7922 17.064C82.4802 17.8 81.0322 18.168 79.4482 18.168ZM79.4482 14.424C80.7922 14.424 81.8642 13.976 82.6642 13.08C83.4802 12.184 83.8882 11 83.8882 9.528C83.8882 8.04 83.4802 6.856 82.6642 5.976C81.8642 5.08 80.7922 4.632 79.4482 4.632C78.0882 4.632 77.0002 5.072 76.1842 5.952C75.3842 6.832 74.9842 8.024 74.9842 9.528C74.9842 11.016 75.3842 12.208 76.1842 13.104C77.0002 13.984 78.0882 14.424 79.4482 14.424ZM105.419 18H101.315L94.4514 7.608V18H90.3474V1.152H94.4514L101.315 11.592V1.152H105.419V18ZM120.514 1.152V4.44H116.05V18H111.946V4.44H107.482V1.152H120.514ZM130.542 18.168C128.958 18.168 127.502 17.8 126.174 17.064C124.862 16.328 123.814 15.304 123.03 13.992C122.262 12.664 121.878 11.176 121.878 9.528C121.878 7.88 122.262 6.4 123.03 5.088C123.814 3.776 124.862 2.752 126.174 2.016C127.502 1.28 128.958 0.912 130.542 0.912C132.126 0.912 133.574 1.28 134.886 2.016C136.214 2.752 137.254 3.776 138.006 5.088C138.774 6.4 139.158 7.88 139.158 9.528C139.158 11.176 138.774 12.664 138.006 13.992C137.238 15.304 136.198 16.328 134.886 17.064C133.574 17.8 132.126 18.168 130.542 18.168ZM130.542 14.424C131.886 14.424 132.958 13.976 133.758 13.08C134.574 12.184 134.982 11 134.982 9.528C134.982 8.04 134.574 6.856 133.758 5.976C132.958 5.08 131.886 4.632 130.542 4.632C129.182 4.632 128.094 5.072 127.278 5.952C126.478 6.832 126.078 8.024 126.078 9.528C126.078 11.016 126.478 12.208 127.278 13.104C128.094 13.984 129.182 14.424 130.542 14.424ZM156.513 18H152.409L145.545 7.608V18H141.441V1.152H145.545L152.409 11.592V1.152H156.513V18Z" fill="white"/>
</svg>